<svg xmlns="http://www.w3.org/2000/svg" xmlns:xlink="http://www.w3.org/1999/xlink" version="1.1" x="0px" y="0px" viewBox="0 0 100 125" enable-background="new 90 0 100 100" xml:space="preserve"><g><path d="M9.055,52.646c6.941,5.803,23.194,9.662,40.945,9.662s34.004-3.86,40.945-9.662c-4.692-3.927-13.671-7.034-24.872-8.589   c-3.777,1.975-9.757,3.15-16.073,3.15s-12.296-1.175-16.073-3.149C22.726,45.612,13.746,48.721,9.055,52.646z"/><path d="M48.341,42.237c0,0.917,0.743,1.66,1.659,1.66s1.659-0.743,1.659-1.66S50.916,40.578,50,40.578   S48.341,41.321,48.341,42.237z M54.557,41.901c0,0.879,0.672,1.592,1.501,1.592c0.828,0,1.5-0.713,1.5-1.592   s-0.672-1.592-1.5-1.592C55.229,40.309,54.557,41.022,54.557,41.901z M60.303,40.893c0.099,0.799,0.695,1.383,1.334,1.305   c0.639-0.078,1.076-0.79,0.979-1.589c-0.099-0.799-0.695-1.383-1.334-1.305C60.643,39.382,60.205,40.093,60.303,40.893z    M42.389,41.901c0,0.879,0.672,1.592,1.5,1.592c0.829,0,1.501-0.713,1.501-1.592s-0.672-1.592-1.501-1.592   C43.061,40.309,42.389,41.022,42.389,41.901z M39.644,40.893c0.098-0.799-0.34-1.511-0.979-1.589   c-0.638-0.079-1.235,0.506-1.333,1.305c-0.099,0.799,0.34,1.511,0.978,1.589C38.948,42.276,39.545,41.691,39.644,40.893z    M34.248,42.465c1.027-5.299,7.713-9.389,15.808-9.389c8.093,0,14.776,4.087,15.807,9.383l-0.08-0.011l-0.224,0.122   C62.014,44.5,56.197,45.653,50,45.653s-12.014-1.152-15.559-3.082L34.248,42.465z"/><path fill-rule="evenodd" clip-rule="evenodd" d="M61.98,63.289c-2.92,2.23-7.181,3.635-11.925,3.635   c-4.735,0-8.988-1.399-11.908-3.622c3.798,0.367,7.773,0.561,11.853,0.561C54.125,63.862,58.145,63.665,61.98,63.289z"/></g></svg>